<?xml version="1.0" encoding="UTF-8" standalone="no"?>
<svg
   xmlns:dc="http://purl.org/dc/elements/1.1/"
   xmlns:cc="http://creativecommons.org/ns#"
   xmlns:rdf="http://www.w3.org/1999/02/22-rdf-syntax-ns#"
   xmlns:svg="http://www.w3.org/2000/svg"
   xmlns="http://www.w3.org/2000/svg"
   version="1.1"
   x="0px"
   y="0px"
   width="128"
   height="128"
   viewBox="0, 0, 128, 128"
   id="svg134">
  <metadata
     id="metadata138">
    <rdf:RDF>
      <cc:Work
         rdf:about="">
        <dc:format>image/svg+xml</dc:format>
        <dc:type
           rdf:resource="http://purl.org/dc/dcmitype/StillImage" />
        <dc:title></dc:title>
      </cc:Work>
    </rdf:RDF>
  </metadata>
  <g
     id="Background">
    <rect
       x="0"
       y="0"
       width="128"
       height="128"
       fill="#000000"
       fill-opacity="0"
       id="rect117" />
  </g>
  <g
     id="g130">
    <path
       d="M18.092,6 L109.903,6 C116.552,6 122,11.441 122,18.096 L122,109.902 C122,116.559 116.552,122 109.903,122 L18.092,122 C11.436,122 6,116.559 6,109.902 L6,18.096 C6,11.441 11.436,6 18.092,6"
       fill="#737370"
       id="path120" />
    <g
       style="fill:#82d1f5;fill-opacity:1"
       transform="matrix(0.528,0,0,0.528,13.806205,11.706468)"
       id="g1458-1-47">
      <path
         d="M 20.5599,196.05127 C 49.354839,134.82165 30.414,85.281 30.414,85.281 26.06,83.992 12.135,93.118 12.135,93.118 19.967,64.416 63.045,40.031 63.045,40.031 58.263,38.281 44.772,41.757 44.772,41.757 80.015,7.838 123.098,20.451 123.098,20.451 124.398,13.048 145.73,0 145.73,0 c -2.182,2.161 -3.062,13.926 -3.062,13.926 2.176,-3.922 9.15,-7.837 9.15,-7.837 -3.913,9.126 0,28.703 0,28.703 11.312,11.322 23.927,50.49 23.927,50.49 l 4.8,6.96 c 6.094,8.715 3.854,22.417 -2.182,25.667 -22.62,12.212 -24.808,-10.001 -24.808,-10.001 -18.713,-2.176 -32.639,-23.07 -32.639,-23.07 -25.23,13.051 -11.178,49.869 -0.284,64.007 13.997,18.123 3.748,47.44 3.748,47.44 0,0 -54.57886,-6.07874 -103.8201,-0.23373 z"
         id="path1456-0-2"
         style="fill:#82d1f5;fill-opacity:1" />
    </g>
  </g>
  <defs
     id="defs132" />
</svg>
